<svg xmlns="http://www.w3.org/2000/svg" viewBox="0 0 400 400"><defs><style>.a{fill:#9b9b9b;}</style></defs><rect width="400" height="400"/><path class="a" d="M103.94,230.47h18.8v-7.56h-18.8Zm0-17.77h18.8v-7.58h-18.8Zm66.67,53.37h18.8v-7.58h-18.8Zm-13.3-35.6h32.1v-7.56h-32.1Zm13.3,17.81h18.8V240.7h-18.8Zm-66.67,0h18.8V240.7h-18.8Zm45.49-60.95H103.94v7.58h45.49Zm-26.69-53.4h-18.8v7.59h18.8ZM144,212.7h45.46v-7.58H144Zm-40,53.37h18.8v-7.58h-18.8ZM282.73,133.93H224v7.59h58.78ZM136.08,169.52H103.94v7.59h32.14Zm-13.34-17.79h-18.8v7.59h18.8Zm120,17.79H210.62v7.59H242.7Zm21.24,60.95h32.12v-7.56H263.94ZM210.62,212.7h85.44v-7.58H210.62Zm53.32,35.58h32.12V240.7H263.94Zm-53.32-53.37h85.44v-7.58H210.62Zm0-43.18v7.59h85.44v-7.59Zm53.32,25.38h32.12v-7.59H263.94Zm0,89h32.12v-7.58H263.94Zm-53.32,0H242.7v-7.58H210.62Zm-40-106.75h18.8v-7.59h-18.8Zm0-17.8h18.8v-7.59h-18.8Zm0,35.59h18.8v-7.59h-18.8Zm40,71.17H242.7V240.7H210.62Zm-40-53.37h18.8v-7.58h-18.8Zm40,35.56H242.7v-7.56H210.62Z"/><path class="a" d="M200,53.23a146.25,146.25,0,1,1-57.13,11.53A145.87,145.87,0,0,1,200,53.23m0-7.72A154.49,154.49,0,1,0,354.49,200,154.48,154.48,0,0,0,200,45.51Z"/></svg>